<svg xmlns="http://www.w3.org/2000/svg" viewBox="0 0 32 32"><circle cx="16" cy="16" r="16" fill="#F7931A"/><path fill="#FFF" d="M22.5 14.1c.4-2.6-1.5-4-3.8-4.3l.7-2.8-1.7-.4-.7 2.6c-.5-.1-1-.2-1.5-.4l.7-2.7-1.7-.4-.7 2.8c-.4-.1-.8-.2-1.2-.3l-2.1-.5-.4 1.7s1.5.4 1.5.4c.8.2.9.7 1 1.3l.6 2.5c0 0 .2.4-.4.7-.2.1-.5.2-.8.3l-.7 2.8 1.7.4.7-2.7c.5.1 1 .3 1.5.4l-.7 2.8 1.7.4.8-3c.4.2.8.3 1.2.5l.5 2.1.4-1.7c-.2 0-.5-.1-.8-.2-.2-.1-.5-.2-.7-.4l-.6-2.4c0-.1-.1-.3 0-.4.1-.2.4-.6 1-.6l1.2.3s1.6.4 1.6.4l.5-2z"/></svg>