<svg xmlns="http://www.w3.org/2000/svg" viewBox="0 0 32 32"><circle cx="16" cy="16" r="16" fill="#627EEA"/><path fill="#FFF" fill-opacity=".6" d="M16.4 5.7v2.9h1.8c1.9 0 3.1.9 3.1 2.5 0 1.7-1.2 2.7-3.1 2.7h-1.8v2.4h3.5c1.9 0 3.1 1 3.1 2.6 0 1.2 1.7-2.7-3.1 2.7h-2.3v2.5c0 1.8 1.1 2.8 3 2.8 1.1 0 2.1-.2 2.8-.6l-.8-2.3c-.5.2-1.1.4-1.8.4-1.2 0-1.9-.7-1.9-1.9v-2.7h4.5c1.9 0 3.1 1 3.1 2.6 0 1.7-1.2 2.7-3.1 2.7h-4.5v2.4h5.3c1.9 0 3.1 1 3.1 2.6 0 1.7-1.2 2.7-3.1 2.7H10.7c-1.9 0-3.1-1-3.1-2.6V10.3c0-1.7 1.2-2.7 3.1-2.7h2.1V5.2h-2.1c-1.9 0-3.1-1-3.1-2.6V0c0-1.7 1.2-2.7 3.1-2.7h8.6c9.5.1 10.4 6.8 5.3 11.3-2.6 2.3-6.6 2.5-9.3-.3l-1.7-1.5z"/></svg>