<svg xmlns="http://www.w3.org/2000/svg" viewBox="0 0 32 32"><circle cx="16" cy="16" r="16" fill="#26A17B"/><path fill="#FFF" d="M15.8 6.3h.5v2.7h-.5c-.9 0-1.6.3-1.6 1.4v5.2c0 1 .7 1.5 1.6 1.5h2.7c.9 0 1.6-.4 1.6-1.5v-5.2c0-1.1-.7-1.4-1.6-1.4h-.5v-2.7h.5c.9 0 1.6-.3 1.6-1.4v-1.2c0-1-.7-1.4-1.6-1.4h-2.7c-.9 0-1.6.3-1.6 1.4v1.2c0 1.1.7 1.4 1.6 1.4zM10.8 9h2.7c.9 0 1.6.3 1.6 1.4v1.2c0 1-.7 1.4-1.6 1.4h-.5v2.7h.5c.9 0 1.6.4 1.6 1.5v.9c0 1-.7 1.4-1.6 1.4h-2.7c-.9 0-1.6-.3-1.6-1.4v-.9c0-1.1.7-1.5 1.6-1.5h.5v-2.7h-.5c-.9 0-1.6-.4-1.6-1.4v-1.2c0-1.1.7-1.4 1.6-1.4z"/></svg>