<svg xmlns="http://www.w3.org/2000/svg" viewBox="0 0 32 32"><circle cx="16" cy="16" r="16" fill="#23292F"/><path fill="#FFF" d="M22.8 14.6c.2-.7-.3-1.2-1.1-1.5l.4-1.7-1-.2-.4 1.6c-.4-.1-.9-.2-1.3-.3l.4-1.7-1-.2-.4 1.7c-.3-.1-.7-.2-1-.3l-1.7-.4-.3 1.4c.2 0 .5.1.7.2-.2.6-.7 1.1-1.4 1.3l.5 1.8c.9-.3 1.6-.8 1.9-1.5l.8 1.5c.3.1.7.2 1 .3l-.4 1.7 1 .2.4-1.7c.4.1.9.2 1.3.3l-.4 1.7 1 .2.4-1.7c2.2.4 3.9.9 4.5 2.3-.4-.1-.9-.2-1.4-.3l.4-1.7-1-.2-.4 1.7c.3.1.6.1.9.2zM18.1 13.8l-.7 2.7c0 .1.1.2.2.2s.2-.1.2-.2l.7-2.7c0-.1-.1-.2-.2-.2s-.2.1-.2.2z"/></svg>